<svg width="494.68" height="321.627" viewBox="0 0 371.01 241.22" class="displayed_equation" xmlns="http://www.w3.org/2000/svg">
  <path d="M 134.921875 413.176562 L 3575.195313 413.176562" transform="matrix(.1 0 0 -.1 0 241.22)" fill="none" stroke-width="29.888" stroke="#55a4e0" stroke-miterlimit="10" />
  <path d="M 1855.078125 198.1375 L 1855.078125 2133.29375" transform="matrix(.1 0 0 -.1 0 241.22)" fill="none" stroke-width="7.97" stroke="#4c4c4e" stroke-dasharray="29.8883,29.8883" stroke-miterlimit="10" />
  <path d="M172.675781 16.289063L170.042969 16.289063 170.042969 16.625C170.511719 16.625 170.714844 16.691406 170.890625 16.902344 171.058594 17.09375 171.101563 17.394531 171.101563 18.0625L171.101563 21.679688 171.046875 21.679688 166.921875 16.289063 165.023438 16.289063 165.023438 16.625C165.523438 16.625 165.714844 16.738281 166.070313 17.191406L166.070313 21.957031C166.070313 23.085938 165.90625 23.285156 165.023438 23.285156L165.023438 23.621094 167.632813 23.621094 167.632813 23.285156C166.796875 23.285156 166.617188 23.074219 166.617188 21.957031L166.617188 17.738281 166.675781 17.738281 171.292969 23.710938 171.660156 23.710938 171.660156 18.121094C171.660156 17.316406 171.773438 17.003906 171.953125 16.847656 172.117188 16.691406 172.273438 16.625 172.675781 16.625L172.675781 16.289063M175.777344 18.210938C174.273438 18.210938 173.28125 19.304688 173.28125 20.921875 173.28125 22.726563 174.21875 23.730469 175.777344 23.730469 177.226563 23.730469 178.253906 22.75 178.253906 20.875 178.253906 19.226563 177.304688 18.210938 175.777344 18.210938zM175.734375 18.632813C176.726563 18.632813 177.226563 19.558594 177.226563 20.929688 177.226563 22.75 176.738281 23.285156 175.824219 23.285156 174.863281 23.296875 174.316406 22.550781 174.316406 20.773438 174.316406 19.347656 174.886719 18.632813 175.734375 18.632813M180.742188 18.242188L180.472656 18.242188 179.089844 18.578125 179.089844 18.890625C179.089844 18.890625 179.214844 18.867188 179.4375 18.867188 179.839844 18.867188 179.839844 19.066406 179.839844 19.46875L179.839844 22.535156C179.839844 23.160156 179.757813 23.296875 179.023438 23.296875L179.023438 23.621094 181.8125 23.621094 181.8125 23.296875C180.976563 23.296875 180.765625 23.1875 180.765625 22.480469L180.765625 19.9375C181.03125 19.492188 181.390625 19.023438 181.644531 19.023438 181.78125 19.023438 182.003906 19.402344 182.371094 19.402344 182.617188 19.402344 182.859375 19.226563 182.859375 18.800781 182.859375 18.421875 182.648438 18.175781 182.214844 18.175781 181.679688 18.175781 181.34375 18.566406 180.773438 19.390625L180.742188 19.390625 180.742188 18.242188M185.0625 19.636719C185.386719 19.335938 185.878906 18.921875 186.457031 18.921875 186.972656 18.921875 187.351563 19.167969 187.351563 20.117188L187.351563 22.324219C187.351563 23.105469 187.285156 23.296875 186.492188 23.296875L186.492188 23.621094 189.136719 23.621094 189.136719 23.296875C188.332031 23.296875 188.277344 23.09375 188.277344 22.324219L188.277344 19.613281C188.644531 19.304688 189.101563 18.921875 189.558594 18.921875 190.085938 18.921875 190.519531 19.167969 190.519531 20.183594L190.519531 22.324219C190.519531 23.007813 190.484375 23.296875 189.726563 23.296875L189.726563 23.621094 192.246094 23.621094 192.246094 23.296875C191.476563 23.296875 191.445313 23.027344 191.445313 22.324219L191.445313 20.050781C191.445313 18.699219 190.878906 18.210938 190.007813 18.210938 189.414063 18.210938 188.84375 18.53125 188.234375 19.136719L188.1875 19.136719C187.964844 18.601563 187.585938 18.210938 186.949219 18.210938 186.191406 18.210938 185.679688 18.621094 185.074219 19.148438L185.03125 19.148438 185.03125 18.242188 184.761719 18.242188 183.367188 18.566406 183.367188 18.890625C183.367188 18.890625 183.503906 18.867188 183.667969 18.867188 183.980469 18.867188 184.136719 18.96875 184.136719 19.371094L184.136719 22.492188C184.136719 23.160156 184.058594 23.296875 183.355469 23.296875L183.355469 23.621094 185.898438 23.621094 185.898438 23.296875C185.210938 23.296875 185.0625 23.160156 185.0625 22.535156L185.0625 19.636719M195.9375 22.929688C196.003906 23.417969 196.113281 23.675781 196.605469 23.675781 197.175781 23.675781 197.441406 23.441406 197.8125 22.90625L197.644531 22.726563C197.488281 22.894531 197.332031 23.007813 197.117188 23.007813 196.882813 23.007813 196.785156 22.917969 196.785156 22.460938L196.785156 19.929688C196.785156 18.765625 196.328125 18.210938 195.109375 18.210938 193.894531 18.210938 193.148438 18.8125 193.148438 19.4375 193.148438 19.804688 193.390625 19.972656 193.617188 19.972656 193.929688 19.972656 194.105469 19.804688 194.105469 19.460938 194.105469 18.789063 194.21875 18.554688 194.855469 18.554688 195.523438 18.554688 195.859375 18.921875 195.859375 19.894531L195.859375 20.382813C194.898438 20.6875 192.921875 20.976563 192.921875 22.449219 192.921875 23.160156 193.390625 23.699219 194.253906 23.699219 194.964844 23.699219 195.367188 23.386719 195.890625 22.929688zM195.859375 22.59375C195.476563 22.90625 195.078125 23.085938 194.710938 23.085938 194.230469 23.085938 193.90625 22.738281 193.90625 22.179688 193.90625 21.3125 194.84375 21.007813 195.859375 20.753906L195.859375 22.59375M200.800781 23.296875C199.996094 23.296875 199.941406 23.140625 199.941406 22.492188L199.941406 15.742188 199.664063 15.742188 198.191406 16.132813 198.191406 16.4375C198.191406 16.4375 198.359375 16.414063 198.546875 16.414063 198.828125 16.414063 199.015625 16.4375 199.015625 16.894531L199.015625 22.492188C199.015625 23.117188 198.96875 23.296875 198.234375 23.296875L198.234375 23.621094 200.800781 23.621094 200.800781 23.296875M205.730469 22.023438C205.371094 22.492188 205.027344 22.894531 204.121094 22.894531 203.230469 22.894531 202.382813 22.191406 202.382813 20.652344L205.90625 20.652344C205.851563 19.089844 205.050781 18.210938 203.832031 18.210938 202.527344 18.210938 201.480469 19.101563 201.480469 20.964844 201.480469 22.761719 202.515625 23.730469 203.855469 23.730469 205.003906 23.730469 205.539063 23.027344 205.941406 22.179688zM202.371094 20.238281C202.460938 19.203125 202.90625 18.65625 203.664063 18.65625 204.457031 18.65625 204.828125 19.414063 204.859375 20.238281L202.371094 20.238281" fill="#4c4c4e" />
  <path d="M 1855.078125 413.176562 L 2715.15625 1902.864062" transform="matrix(.1 0 0 -.1 0 241.22)" fill="none" stroke-width="7.97" stroke="#000" stroke-miterlimit="10" />
  <path d="M243.203125 38.820313C243.203125 37.402344 241.996094 36.988281 240.324219 36.988281L237.578125 36.988281 237.578125 37.324219C238.472656 37.324219 238.570313 37.535156 238.570313 38.152344L238.570313 42.9375C238.570313 43.871094 238.417969 43.984375 237.578125 43.984375L237.578125 44.320313 240.714844 44.320313 240.714844 43.984375C239.753906 43.984375 239.609375 43.863281 239.609375 42.9375L239.609375 40.960938 239.921875 40.960938C240.324219 40.960938 240.445313 40.996094 240.671875 41.328125 241.128906 42 241.453125 42.480469 242.667969 44.320313L244.507813 44.320313 244.507813 43.984375C243.996094 43.984375 243.714844 43.90625 243.359375 43.417969 242.132813 41.664063 241.695313 41.039063 241.316406 40.816406L241.316406 40.773438C242.21875 40.5625 243.203125 40.070313 243.203125 38.820313zM239.609375 37.460938C239.84375 37.4375 240.101563 37.425781 240.347656 37.425781 241.550781 37.425781 242.074219 37.972656 242.074219 38.863281 242.074219 40.046875 241.261719 40.480469 240.035156 40.539063L239.609375 40.527344 239.609375 37.460938M247.9375 43.628906C248.003906 44.117188 248.113281 44.375 248.605469 44.375 249.175781 44.375 249.441406 44.140625 249.8125 43.605469L249.644531 43.429688C249.488281 43.59375 249.332031 43.707031 249.117188 43.707031 248.882813 43.707031 248.785156 43.617188 248.785156 43.160156L248.785156 40.628906C248.785156 39.46875 248.328125 38.910156 247.109375 38.910156 245.894531 38.910156 245.148438 39.511719 245.148438 40.136719 245.148438 40.503906 245.390625 40.671875 245.617188 40.671875 245.929688 40.671875 246.105469 40.503906 246.105469 40.160156 246.105469 39.488281 246.21875 39.253906 246.855469 39.253906 247.523438 39.253906 247.859375 39.621094 247.859375 40.59375L247.859375 41.085938C246.898438 41.386719 244.921875 41.675781 244.921875 43.148438 244.921875 43.863281 245.390625 44.398438 246.253906 44.398438 246.964844 44.398438 247.367188 44.085938 247.890625 43.628906zM247.859375 43.292969C247.476563 43.605469 247.078125 43.785156 246.710938 43.785156 246.230469 43.785156 245.90625 43.4375 245.90625 42.882813 245.90625 42.011719 246.84375 41.710938 247.859375 41.453125L247.859375 43.292969" />
  <path d="M255.199219 39.042969L253.304688 39.042969 253.304688 39.367188C253.671875 39.367188 253.929688 39.421875 253.929688 39.644531 253.929688 39.734375 253.894531 39.835938 253.871094 39.925781L252.800781 43.191406 252.722656 43.191406 252.566406 42.613281 251.472656 40.160156C251.40625 40.003906 251.316406 39.8125 251.316406 39.679688 251.316406 39.476563 251.453125 39.378906 251.953125 39.378906L251.953125 39.042969 249.566406 39.042969 249.566406 39.367188C249.96875 39.367188 250.121094 39.511719 250.234375 39.769531L251.875 43.351563C252.007813 43.652344 252.210938 44.117188 252.210938 44.265625 252.210938 44.585938 251.574219 45.972656 251.21875 45.972656 250.9375 45.972656 250.703125 45.726563 250.3125 45.726563 250.011719 45.726563 249.789063 45.871094 249.789063 46.207031 249.789063 46.628906 250.113281 46.785156 250.613281 46.785156 251.519531 46.785156 252.066406 46.207031 252.691406 44.566406L254.429688 39.992188C254.585938 39.554688 254.753906 39.367188 255.199219 39.367188L255.199219 39.042969M257.878906 38.910156C256.371094 38.910156 255.378906 40.003906 255.378906 41.621094 255.378906 43.429688 256.316406 44.429688 257.878906 44.429688 259.328125 44.429688 260.355469 43.449219 260.355469 41.574219 260.355469 39.925781 259.40625 38.910156 257.878906 38.910156zM257.835938 39.332031C258.828125 39.332031 259.328125 40.257813 259.328125 41.632813 259.328125 43.449219 258.839844 43.984375 257.921875 43.984375 256.964844 43.996094 256.417969 43.25 256.417969 41.476563 256.417969 40.046875 256.984375 39.332031 257.835938 39.332031M266.164063 40.894531C266.164063 39.613281 265.6875 38.910156 264.671875 38.910156 263.96875 38.910156 263.476563 39.3125 262.875 39.847656L262.828125 39.847656 262.84375 38.941406 262.585938 38.941406 261.167969 39.265625 261.167969 39.589844C261.167969 39.589844 261.28125 39.566406 261.46875 39.566406 261.769531 39.566406 261.9375 39.65625 261.9375 40.058594L261.9375 43.191406C261.9375 43.816406 261.90625 44.007813 261.15625 44.007813L261.15625 44.320313 263.714844 44.320313 263.714844 44.007813C262.90625 44.007813 262.863281 43.816406 262.863281 43.191406L262.863281 40.324219C263.199219 40.023438 263.609375 39.621094 264.214844 39.621094 264.714844 39.621094 265.242188 39.835938 265.242188 41.175781L265.242188 43.191406C265.242188 43.816406 265.207031 44.007813 264.414063 44.007813L264.414063 44.320313 266.992188 44.320313 266.992188 44.007813C266.242188 44.007813 266.164063 43.816406 266.164063 43.191406L266.164063 40.894531M271.941406 38.941406L271.671875 38.941406 270.289063 39.277344 270.289063 39.589844C270.289063 39.589844 270.414063 39.566406 270.636719 39.566406 271.039063 39.566406 271.039063 39.769531 271.039063 40.171875L271.039063 43.238281C271.039063 43.863281 270.960938 43.996094 270.222656 43.996094L270.222656 44.320313 273.011719 44.320313 273.011719 43.996094C272.175781 43.996094 271.964844 43.886719 271.964844 43.183594L271.964844 40.640625C272.230469 40.191406 272.589844 39.722656 272.84375 39.722656 272.980469 39.722656 273.203125 40.101563 273.570313 40.101563 273.816406 40.101563 274.0625 39.925781 274.0625 39.5 274.0625 39.121094 273.851563 38.875 273.414063 38.875 272.878906 38.875 272.542969 39.265625 271.976563 40.09375L271.941406 40.09375 271.941406 38.941406M278.628906 42.726563C278.273438 43.191406 277.925781 43.59375 277.023438 43.59375 276.132813 43.59375 275.28125 42.890625 275.28125 41.351563L278.808594 41.351563C278.753906 39.789063 277.949219 38.910156 276.734375 38.910156 275.429688 38.910156 274.378906 39.800781 274.378906 41.664063 274.378906 43.460938 275.417969 44.429688 276.757813 44.429688 277.90625 44.429688 278.441406 43.730469 278.84375 42.882813zM275.273438 40.941406C275.359375 39.902344 275.808594 39.355469 276.566406 39.355469 277.359375 39.355469 277.726563 40.113281 277.757813 40.941406zM276.097656 38.507813L276.53125 38.507813 277.914063 37 277.914063 36.800781 276.878906 36.800781 276.097656 38.507813M285.671875 43.996094C284.878906 43.996094 284.824219 43.839844 284.824219 43.191406L284.824219 36.441406 284.589844 36.441406 284.097656 36.609375C283.796875 36.464844 283.371094 36.363281 282.839844 36.363281 281.945313 36.363281 281.21875 36.644531 280.785156 37.191406 280.425781 37.683594 280.339844 38.195313 280.339844 39.042969L279.492188 39.042969 279.492188 39.511719 280.339844 39.511719 280.339844 42.992188C280.339844 43.863281 280.214844 43.996094 279.402344 43.996094L279.402344 44.320313 282.289063 44.320313 282.289063 43.996094C281.476563 43.996094 281.265625 43.863281 281.265625 42.992188L281.265625 39.511719 282.59375 39.511719 282.59375 39.042969 281.265625 39.042969 281.265625 38.40625C281.265625 37.15625 281.890625 36.777344 282.625 36.777344 283.417969 36.777344 283.730469 37.148438 283.886719 37.648438L283.886719 43.191406C283.886719 43.816406 283.839844 43.996094 283.105469 43.996094L283.105469 44.320313 285.671875 44.320313 285.671875 43.996094M290.628906 42.726563C290.273438 43.191406 289.925781 43.59375 289.023438 43.59375 288.132813 43.59375 287.28125 42.890625 287.28125 41.351563L290.808594 41.351563C290.753906 39.789063 289.949219 38.910156 288.734375 38.910156 287.429688 38.910156 286.378906 39.800781 286.378906 41.664063 286.378906 43.460938 287.417969 44.429688 288.757813 44.429688 289.90625 44.429688 290.441406 43.730469 290.84375 42.882813zM287.273438 40.941406C287.359375 39.902344 287.808594 39.355469 288.566406 39.355469 289.359375 39.355469 289.726563 40.113281 289.757813 40.941406zM288.097656 38.507813L288.53125 38.507813 289.914063 37 289.914063 36.800781 288.878906 36.800781 288.097656 38.507813M295.753906 42.667969C295.25 43.316406 294.871094 43.59375 294.144531 43.59375 292.996094 43.59375 292.449219 42.636719 292.449219 41.273438 292.449219 39.992188 292.996094 39.320313 293.898438 39.320313 294.859375 39.320313 294.492188 40.59375 295.316406 40.59375 295.628906 40.59375 295.785156 40.414063 295.785156 40.09375 295.785156 39.445313 295.136719 38.910156 294.089844 38.910156 292.484375 38.910156 291.570313 40.046875 291.570313 41.796875 291.570313 43.351563 292.40625 44.429688 293.800781 44.429688 294.992188 44.429688 295.539063 43.730469 295.964844 42.824219L295.753906 42.667969M298.242188 40.316406C298.789063 39.8125 299.191406 39.621094 299.625 39.621094 300.527344 39.621094 300.652344 40.394531 300.652344 41.308594L300.652344 43.238281C300.652344 43.773438 300.605469 43.996094 299.839844 43.996094L299.839844 44.320313 302.402344 44.320313 302.402344 43.996094C301.699219 43.996094 301.578125 43.785156 301.578125 43.191406L301.578125 40.972656C301.578125 40.058594 301.367188 38.910156 300.082031 38.910156 299.492188 38.910156 298.976563 39.164063 298.273438 39.824219L298.242188 39.824219 298.242188 36.441406 297.941406 36.441406 296.445313 36.835938 296.445313 37.148438C296.445313 37.148438 296.589844 37.125 296.769531 37.125 297.070313 37.125 297.316406 37.179688 297.316406 37.570313L297.316406 43.28125C297.316406 43.90625 297.113281 43.996094 296.535156 43.996094L296.535156 44.320313 299.066406 44.320313 299.066406 43.996094C298.296875 43.996094 298.242188 43.816406 298.242188 43.238281L298.242188 40.316406M304.316406 36.589844C303.925781 36.589844 303.679688 36.878906 303.679688 37.214844 303.679688 37.558594 303.9375 37.851563 304.316406 37.851563 304.707031 37.851563 304.953125 37.558594 304.953125 37.214844 304.953125 36.878906 304.707031 36.589844 304.316406 36.589844zM305.566406 44.007813C304.820313 44.007813 304.765625 43.839844 304.765625 43.191406L304.765625 38.941406 304.472656 38.941406 303.070313 39.253906 303.070313 39.578125C303.070313 39.578125 303.191406 39.554688 303.347656 39.554688 303.671875 39.554688 303.839844 39.601563 303.839844 40.082031L303.839844 43.191406C303.839844 43.828125 303.804688 44.007813 303.054688 44.007813L303.054688 44.320313 305.566406 44.320313 305.566406 44.007813" />
  <path d="M 1855.078125 413.176562 L 995 1902.864062" transform="matrix(.1 0 0 -.1 0 241.22)" fill="none" stroke-width="7.97" stroke="#000" stroke-miterlimit="10" />
  <path d="M69.703125 38.820313C69.703125 37.402344 68.496094 36.988281 66.824219 36.988281L64.078125 36.988281 64.078125 37.324219C64.972656 37.324219 65.070313 37.535156 65.070313 38.152344L65.070313 42.9375C65.070313 43.871094 64.917969 43.984375 64.078125 43.984375L64.078125 44.320313 67.214844 44.320313 67.214844 43.984375C66.253906 43.984375 66.109375 43.863281 66.109375 42.9375L66.109375 40.960938 66.421875 40.960938C66.824219 40.960938 66.945313 40.996094 67.171875 41.328125 67.628906 42 67.953125 42.480469 69.167969 44.320313L71.007813 44.320313 71.007813 43.984375C70.496094 43.984375 70.214844 43.90625 69.859375 43.417969 68.632813 41.664063 68.195313 41.039063 67.816406 40.816406L67.816406 40.773438C68.71875 40.5625 69.703125 40.070313 69.703125 38.820313zM66.109375 37.460938C66.34375 37.4375 66.601563 37.425781 66.847656 37.425781 68.050781 37.425781 68.574219 37.972656 68.574219 38.863281 68.574219 40.046875 67.761719 40.480469 66.535156 40.539063L66.109375 40.527344 66.109375 37.460938M74.4375 43.628906C74.503906 44.117188 74.613281 44.375 75.105469 44.375 75.675781 44.375 75.941406 44.140625 76.3125 43.605469L76.144531 43.429688C75.988281 43.59375 75.832031 43.707031 75.617188 43.707031 75.382813 43.707031 75.285156 43.617188 75.285156 43.160156L75.285156 40.628906C75.285156 39.46875 74.828125 38.910156 73.609375 38.910156 72.394531 38.910156 71.648438 39.511719 71.648438 40.136719 71.648438 40.503906 71.890625 40.671875 72.117188 40.671875 72.429688 40.671875 72.605469 40.503906 72.605469 40.160156 72.605469 39.488281 72.71875 39.253906 73.355469 39.253906 74.023438 39.253906 74.359375 39.621094 74.359375 40.59375L74.359375 41.085938C73.398438 41.386719 71.421875 41.675781 71.421875 43.148438 71.421875 43.863281 71.890625 44.398438 72.75 44.398438 73.464844 44.398438 73.867188 44.085938 74.390625 43.628906zM74.359375 43.292969C73.976563 43.605469 73.578125 43.785156 73.210938 43.785156 72.730469 43.785156 72.40625 43.4375 72.40625 42.882813 72.40625 42.011719 73.34375 41.710938 74.359375 41.453125L74.359375 43.292969" />
  <path d="M81.601563 39.042969L79.703125 39.042969 79.703125 39.367188C80.070313 39.367188 80.328125 39.421875 80.328125 39.644531 80.328125 39.734375 80.296875 39.835938 80.273438 39.925781L79.203125 43.191406 79.125 43.191406 78.96875 42.613281 77.875 40.160156C77.804688 40.003906 77.71875 39.8125 77.71875 39.679688 77.71875 39.476563 77.851563 39.378906 78.351563 39.378906L78.351563 39.042969 75.964844 39.042969 75.964844 39.367188C76.367188 39.367188 76.523438 39.511719 76.636719 39.769531L78.273438 43.351563C78.410156 43.652344 78.609375 44.117188 78.609375 44.265625 78.609375 44.585938 77.976563 45.972656 77.617188 45.972656 77.339844 45.972656 77.105469 45.726563 76.714844 45.726563 76.414063 45.726563 76.1875 45.871094 76.1875 46.207031 76.1875 46.628906 76.511719 46.785156 77.015625 46.785156 77.917969 46.785156 78.464844 46.207031 79.089844 44.566406L80.828125 39.992188C80.984375 39.554688 81.152344 39.367188 81.601563 39.367188L81.601563 39.042969M84.378906 38.910156C82.871094 38.910156 81.878906 40.003906 81.878906 41.621094 81.878906 43.429688 82.816406 44.429688 84.378906 44.429688 85.828125 44.429688 86.855469 43.449219 86.855469 41.574219 86.855469 39.925781 85.90625 38.910156 84.378906 38.910156zM84.335938 39.332031C85.328125 39.332031 85.828125 40.257813 85.828125 41.632813 85.828125 43.449219 85.335938 43.984375 84.421875 43.984375 83.464844 43.996094 82.917969 43.25 82.917969 41.476563 82.917969 40.046875 83.484375 39.332031 84.335938 39.332031M92.566406 40.894531C92.566406 39.613281 92.085938 38.910156 91.070313 38.910156 90.367188 38.910156 89.878906 39.3125 89.273438 39.847656L89.230469 39.847656 89.242188 38.941406 88.984375 38.941406 87.570313 39.265625 87.570313 39.589844C87.570313 39.589844 87.679688 39.566406 87.867188 39.566406 88.171875 39.566406 88.335938 39.65625 88.335938 40.058594L88.335938 43.191406C88.335938 43.816406 88.304688 44.007813 87.554688 44.007813L87.554688 44.320313 90.113281 44.320313 90.113281 44.007813C89.308594 44.007813 89.265625 43.816406 89.265625 43.191406L89.265625 40.324219C89.597656 40.023438 90.011719 39.621094 90.613281 39.621094 91.117188 39.621094 91.640625 39.835938 91.640625 41.175781L91.640625 43.191406C91.640625 43.816406 91.605469 44.007813 90.8125 44.007813L90.8125 44.320313 93.390625 44.320313 93.390625 44.007813C92.644531 44.007813 92.566406 43.816406 92.566406 43.191406L92.566406 40.894531M97.917969 36.589844C97.527344 36.589844 97.28125 36.878906 97.28125 37.214844 97.28125 37.558594 97.539063 37.851563 97.917969 37.851563 98.308594 37.851563 98.554688 37.558594 98.554688 37.214844 98.554688 36.878906 98.308594 36.589844 97.917969 36.589844zM99.167969 44.007813C98.421875 44.007813 98.363281 43.839844 98.363281 43.191406L98.363281 38.941406 98.074219 38.941406 96.667969 39.253906 96.667969 39.578125C96.667969 39.578125 96.789063 39.554688 96.945313 39.554688 97.269531 39.554688 97.4375 39.601563 97.4375 40.082031L97.4375 43.191406C97.4375 43.828125 97.40625 44.007813 96.65625 44.007813L96.65625 44.320313 99.167969 44.320313 99.167969 44.007813M104.867188 40.894531C104.867188 39.613281 104.386719 38.910156 103.371094 38.910156 102.667969 38.910156 102.179688 39.3125 101.574219 39.847656L101.53125 39.847656 101.542969 38.941406 101.285156 38.941406 99.867188 39.265625 99.867188 39.589844C99.867188 39.589844 99.980469 39.566406 100.167969 39.566406 100.46875 39.566406 100.636719 39.65625 100.636719 40.058594L100.636719 43.191406C100.636719 43.816406 100.605469 44.007813 99.855469 44.007813L99.855469 44.320313 102.414063 44.320313 102.414063 44.007813C101.609375 44.007813 101.5625 43.816406 101.5625 43.191406L101.5625 40.324219C101.898438 40.023438 102.3125 39.621094 102.914063 39.621094 103.414063 39.621094 103.941406 39.835938 103.941406 41.175781L103.941406 43.191406C103.941406 43.816406 103.90625 44.007813 103.113281 44.007813L103.113281 44.320313 105.691406 44.320313 105.691406 44.007813C104.945313 44.007813 104.867188 43.816406 104.867188 43.191406L104.867188 40.894531M110.550781 42.667969C110.050781 43.316406 109.671875 43.59375 108.945313 43.59375 107.796875 43.59375 107.25 42.636719 107.25 41.273438 107.25 39.992188 107.796875 39.320313 108.699219 39.320313 109.660156 39.320313 109.289063 40.59375 110.117188 40.59375 110.429688 40.59375 110.585938 40.414063 110.585938 40.09375 110.585938 39.445313 109.9375 38.910156 108.890625 38.910156 107.28125 38.910156 106.367188 40.046875 106.367188 41.796875 106.367188 43.351563 107.203125 44.429688 108.601563 44.429688 109.792969 44.429688 110.339844 43.730469 110.765625 42.824219L110.550781 42.667969M112.617188 36.589844C112.226563 36.589844 111.980469 36.878906 111.980469 37.214844 111.980469 37.558594 112.238281 37.851563 112.617188 37.851563 113.007813 37.851563 113.253906 37.558594 113.253906 37.214844 113.253906 36.878906 113.007813 36.589844 112.617188 36.589844zM113.867188 44.007813C113.121094 44.007813 113.0625 43.839844 113.0625 43.191406L113.0625 38.941406 112.773438 38.941406 111.367188 39.253906 111.367188 39.578125C111.367188 39.578125 111.492188 39.554688 111.648438 39.554688 111.96875 39.554688 112.136719 39.601563 112.136719 40.082031L112.136719 43.191406C112.136719 43.828125 112.105469 44.007813 111.355469 44.007813L111.355469 44.320313 113.867188 44.320313 113.867188 44.007813M119.933594 44.117188L119.933594 43.816406 119.699219 43.816406C119.289063 43.816406 119.140625 43.707031 119.140625 43.125L119.140625 36.441406 118.839844 36.441406 117.4375 36.835938 117.4375 37.148438C117.4375 37.148438 117.625 37.125 117.726563 37.125 118.160156 37.125 118.214844 37.226563 118.214844 37.714844L118.214844 39.175781C117.871094 38.988281 117.503906 38.910156 117.132813 38.910156 115.726563 38.910156 114.570313 40.035156 114.570313 41.875 114.570313 43.304688 115.214844 44.410156 116.476563 44.410156 117.214844 44.410156 117.78125 43.984375 118.203125 43.605469L118.25 43.605469 118.25 44.375 118.507813 44.375zM118.214844 43.191406C117.828125 43.460938 117.523438 43.605469 117 43.605469 116.050781 43.605469 115.539063 42.980469 115.539063 41.441406 115.539063 40.035156 116.175781 39.355469 117.113281 39.355469 117.804688 39.355469 118.128906 39.789063 118.214844 40.246094L118.214844 43.191406M124.828125 42.726563C124.472656 43.191406 124.128906 43.59375 123.222656 43.59375 122.332031 43.59375 121.484375 42.890625 121.484375 41.351563L125.007813 41.351563C124.953125 39.789063 124.148438 38.910156 122.933594 38.910156 121.628906 38.910156 120.578125 39.800781 120.578125 41.664063 120.578125 43.460938 121.617188 44.429688 122.957031 44.429688 124.105469 44.429688 124.640625 43.730469 125.042969 42.882813zM121.472656 40.941406C121.5625 39.902344 122.007813 39.355469 122.765625 39.355469 123.558594 39.355469 123.925781 40.113281 123.960938 40.941406L121.472656 40.941406M130.765625 40.894531C130.765625 39.613281 130.285156 38.910156 129.273438 38.910156 128.570313 38.910156 128.078125 39.3125 127.476563 39.847656L127.429688 39.847656 127.441406 38.941406 127.183594 38.941406 125.769531 39.265625 125.769531 39.589844C125.769531 39.589844 125.878906 39.566406 126.070313 39.566406 126.371094 39.566406 126.539063 39.65625 126.539063 40.058594L126.539063 43.191406C126.539063 43.816406 126.503906 44.007813 125.757813 44.007813L125.757813 44.320313 128.3125 44.320313 128.3125 44.007813C127.507813 44.007813 127.464844 43.816406 127.464844 43.191406L127.464844 40.324219C127.796875 40.023438 128.210938 39.621094 128.8125 39.621094 129.316406 39.621094 129.839844 39.835938 129.839844 41.175781L129.839844 43.191406C129.839844 43.816406 129.804688 44.007813 129.015625 44.007813L129.015625 44.320313 131.59375 44.320313 131.59375 44.007813C130.84375 44.007813 130.765625 43.816406 130.765625 43.191406L130.765625 40.894531M135.167969 43.316406C134.890625 43.628906 134.746094 43.773438 134.386719 43.773438 133.953125 43.773438 133.851563 43.507813 133.851563 42.714844L133.851563 39.511719 135.113281 39.511719 135.113281 39.042969 133.851563 39.042969 133.863281 37.515625 133.574219 37.515625C133.171875 38.460938 132.839844 38.929688 132.3125 39.253906L132.3125 39.511719 132.925781 39.511719 132.925781 43.027344C132.925781 44.027344 133.25 44.429688 133.996094 44.429688 134.710938 44.429688 134.945313 44.097656 135.382813 43.496094L135.167969 43.316406M227.460938 127.269531L226.511719 133.039063 225.628906 130.441406 222.9375 130.972656" />
  <path d="M 2274.609375 1139.504687 L 2265.117188 1081.809375 L 2256.289063 1107.785937 L 2229.375 1102.473437 Z M 2274.609375 1139.504687" transform="matrix(.1 0 0 -.1 0 241.22)" fill="none" stroke-width="7.97" stroke="#000" stroke-miterlimit="10" />
  <path d="M 141.441406 123.550781 L 136.921875 119.847656 L 139.609375 120.378906 L 140.496094 117.78125" />
  <path d="M 1414.414063 1176.692187 L 1369.21875 1213.723437 L 1396.09375 1208.410937 L 1404.960938 1234.3875 Z M 1414.414063 1176.692187" transform="matrix(.1 0 0 -.1 0 241.22)" fill="none" stroke-width="7.97" stroke="#000" stroke-miterlimit="10" />
  <path d="M229.507813 220.109375L229.429688 217.878906 229.140625 217.878906C229.085938 218.113281 228.972656 218.203125 228.796875 218.203125 228.527344 218.203125 228.28125 217.855469 227.265625 217.855469 226.105469 217.867188 225.148438 218.492188 225.148438 219.664063 225.148438 220.835938 226.050781 221.371094 226.941406 221.882813 227.859375 222.40625 228.796875 222.796875 228.796875 223.78125 228.796875 224.628906 228.269531 224.964844 227.433594 224.964844 226.296875 224.976563 225.726563 224.617188 225.335938 223.078125L224.992188 223.078125 225.089844 225.488281 225.4375 225.488281C225.449219 225.265625 225.582031 225.117188 225.738281 225.117188 225.996094 225.117188 226.429688 225.453125 227.589844 225.453125 228.882813 225.453125 229.855469 224.75 229.855469 223.457031 229.855469 222.128906 228.75 221.628906 227.757813 221.070313 226.921875 220.589844 226.117188 220.1875 226.117188 219.351563 226.117188 218.660156 226.554688 218.304688 227.3125 218.304688 228.4375 218.292969 228.859375 218.882813 229.171875 220.109375L229.507813 220.109375M236.324219 224.820313L236.214844 224.820313C235.679688 224.820313 235.542969 224.742188 235.542969 224.082031L235.542969 219.988281 235.273438 219.988281 233.714844 220.15625 233.714844 220.46875C234.429688 220.46875 234.617188 220.523438 234.617188 221.113281L234.617188 224.046875C234.171875 224.4375 233.8125 224.71875 233.246094 224.71875 232.664063 224.71875 232.242188 224.382813 232.242188 223.246094L232.242188 219.988281 231.996094 219.988281 230.554688 220.15625 230.554688 220.46875C231.160156 220.476563 231.316406 220.523438 231.316406 221.125L231.316406 223.390625C231.316406 224.90625 231.851563 225.429688 232.777344 225.429688 233.492188 225.429688 234.015625 225.097656 234.605469 224.515625L234.664063 224.515625 234.664063 225.375 234.90625 225.375 236.324219 225.117188 236.324219 224.820313M238.640625 219.941406L238.371094 219.941406 236.992188 220.277344 236.992188 220.589844C236.992188 220.589844 237.113281 220.566406 237.335938 220.566406 237.738281 220.566406 237.738281 220.769531 237.738281 221.171875L237.738281 224.238281C237.738281 224.863281 237.660156 224.996094 236.921875 224.996094L236.921875 225.320313 239.714844 225.320313 239.714844 224.996094C238.878906 224.996094 238.664063 224.886719 238.664063 224.183594L238.664063 221.640625C238.929688 221.191406 239.289063 220.722656 239.546875 220.722656 239.679688 220.722656 239.902344 221.101563 240.269531 221.101563 240.515625 221.101563 240.761719 220.925781 240.761719 220.5 240.761719 220.121094 240.550781 219.875 240.113281 219.875 239.578125 219.875 239.242188 220.265625 238.675781 221.09375L238.640625 221.09375 238.640625 219.941406M241.191406 220.042969L241.191406 220.511719 242.039063 220.511719 242.039063 223.992188C242.039063 224.863281 241.914063 224.996094 241.101563 224.996094L241.101563 225.320313 244.101563 225.320313 244.101563 224.996094C243.175781 224.996094 242.964844 224.863281 242.964844 223.992188L242.964844 220.511719 244.324219 220.511719 244.324219 220.042969 242.964844 220.042969 242.964844 219.050781C242.964844 218.113281 243.085938 217.777344 243.5 217.777344 244.058594 217.777344 244.113281 218.625 244.671875 218.625 244.929688 218.625 245.128906 218.46875 245.128906 218.148438 245.128906 217.644531 244.601563 217.367188 243.878906 217.367188 243.097656 217.367188 242.695313 217.667969 242.394531 218.179688 242.105469 218.695313 242.039063 219.195313 242.039063 220.042969L241.191406 220.042969M247.734375 224.628906C247.804688 225.117188 247.914063 225.375 248.40625 225.375 248.976563 225.375 249.242188 225.140625 249.609375 224.605469L249.445313 224.429688C249.289063 224.59375 249.132813 224.707031 248.917969 224.707031 248.683594 224.707031 248.585938 224.617188 248.585938 224.160156L248.585938 221.628906C248.585938 220.46875 248.128906 219.910156 246.910156 219.910156 245.695313 219.910156 244.945313 220.511719 244.945313 221.136719 244.945313 221.503906 245.191406 221.671875 245.414063 221.671875 245.726563 221.671875 245.90625 221.503906 245.90625 221.160156 245.90625 220.488281 246.019531 220.253906 246.65625 220.253906 247.324219 220.253906 247.65625 220.625 247.65625 221.59375L247.65625 222.085938C246.699219 222.386719 244.722656 222.675781 244.722656 224.148438 244.722656 224.863281 245.191406 225.398438 246.050781 225.398438 246.765625 225.398438 247.167969 225.085938 247.691406 224.628906zM247.65625 224.292969C247.277344 224.605469 246.878906 224.785156 246.507813 224.785156 246.03125 224.785156 245.707031 224.4375 245.707031 223.882813 245.707031 223.011719 246.640625 222.710938 247.65625 222.453125L247.65625 224.292969M254.253906 223.667969C253.75 224.316406 253.371094 224.59375 252.644531 224.59375 251.496094 224.59375 250.949219 223.636719 250.949219 222.273438 250.949219 220.992188 251.496094 220.320313 252.398438 220.320313 253.359375 220.320313 252.992188 221.59375 253.816406 221.59375 254.128906 221.59375 254.285156 221.414063 254.285156 221.09375 254.285156 220.445313 253.636719 219.910156 252.589844 219.910156 250.984375 219.910156 250.070313 221.046875 250.070313 222.796875 250.070313 224.351563 250.90625 225.429688 252.300781 225.429688 253.492188 225.429688 254.039063 224.730469 254.464844 223.824219L254.253906 223.667969M259.328125 223.726563C258.972656 224.195313 258.628906 224.59375 257.722656 224.59375 256.832031 224.59375 255.984375 223.890625 255.984375 222.351563L259.507813 222.351563C259.453125 220.789063 258.648438 219.910156 257.433594 219.910156 256.128906 219.910156 255.078125 220.800781 255.078125 222.664063 255.078125 224.460938 256.117188 225.429688 257.457031 225.429688 258.605469 225.429688 259.140625 224.730469 259.542969 223.882813zM255.972656 221.941406C256.0625 220.902344 256.507813 220.355469 257.265625 220.355469 258.058594 220.355469 258.425781 221.113281 258.460938 221.941406L255.972656 221.941406M268.335938 225.117188L268.335938 224.820313 268.101563 224.820313C267.6875 224.820313 267.542969 224.707031 267.542969 224.125L267.542969 217.445313 267.242188 217.445313 265.835938 217.835938 265.835938 218.148438C265.835938 218.148438 266.023438 218.125 266.125 218.125 266.5625 218.125 266.617188 218.226563 266.617188 218.714844L266.617188 220.175781C266.269531 219.988281 265.902344 219.910156 265.535156 219.910156 264.128906 219.910156 262.96875 221.035156 262.96875 222.875 262.96875 224.304688 263.617188 225.410156 264.878906 225.410156 265.613281 225.410156 266.179688 224.984375 266.605469 224.605469L266.648438 224.605469 266.648438 225.375 266.90625 225.375zM266.617188 224.195313C266.226563 224.460938 265.925781 224.605469 265.398438 224.605469 264.453125 224.605469 263.9375 223.980469 263.9375 222.441406 263.9375 221.035156 264.574219 220.355469 265.511719 220.355469 266.203125 220.355469 266.527344 220.789063 266.617188 221.25L266.617188 224.195313M273.230469 223.726563C272.871094 224.195313 272.527344 224.59375 271.621094 224.59375 270.730469 224.59375 269.882813 223.890625 269.882813 222.351563L273.40625 222.351563C273.351563 220.789063 272.550781 219.910156 271.332031 219.910156 270.027344 219.910156 268.980469 220.800781 268.980469 222.664063 268.980469 224.460938 270.015625 225.429688 271.355469 225.429688 272.503906 225.429688 273.039063 224.730469 273.441406 223.882813zM269.871094 221.941406C269.960938 220.902344 270.40625 220.355469 271.164063 220.355469 271.957031 220.355469 272.328125 221.113281 272.359375 221.941406L269.871094 221.941406M278.441406 219.941406L278.171875 219.941406 276.789063 220.277344 276.789063 220.589844C276.789063 220.589844 276.914063 220.566406 277.136719 220.566406 277.539063 220.566406 277.539063 220.769531 277.539063 221.171875L277.539063 224.238281C277.539063 224.863281 277.460938 224.996094 276.722656 224.996094L276.722656 225.320313 279.511719 225.320313 279.511719 224.996094C278.675781 224.996094 278.464844 224.886719 278.464844 224.183594L278.464844 221.640625C278.730469 221.191406 279.089844 220.722656 279.34375 220.722656 279.480469 220.722656 279.703125 221.101563 280.070313 221.101563 280.316406 221.101563 280.5625 220.925781 280.5625 220.5 280.5625 220.121094 280.351563 219.875 279.914063 219.875 279.378906 219.875 279.042969 220.265625 278.476563 221.09375L278.441406 221.09375 278.441406 219.941406M285.230469 223.726563C284.871094 224.195313 284.527344 224.59375 283.621094 224.59375 282.730469 224.59375 281.882813 223.890625 281.882813 222.351563L285.40625 222.351563C285.351563 220.789063 284.550781 219.910156 283.332031 219.910156 282.027344 219.910156 280.980469 220.800781 280.980469 222.664063 280.980469 224.460938 282.015625 225.429688 283.355469 225.429688 284.503906 225.429688 285.039063 224.730469 285.441406 223.882813zM281.871094 221.941406C281.960938 220.902344 282.40625 220.355469 283.164063 220.355469 283.957031 220.355469 284.328125 221.113281 284.359375 221.941406zM282.695313 219.507813L283.132813 219.507813 284.515625 218 284.515625 217.800781 283.476563 217.800781 282.695313 219.507813M292.269531 224.996094C291.476563 224.996094 291.421875 224.839844 291.421875 224.195313L291.421875 217.445313 291.1875 217.445313 290.695313 217.609375C290.398438 217.464844 289.972656 217.367188 289.4375 217.367188 288.542969 217.367188 287.820313 217.644531 287.382813 218.191406 287.027344 218.683594 286.9375 219.195313 286.9375 220.042969L286.089844 220.042969 286.089844 220.511719 286.9375 220.511719 286.9375 223.992188C286.9375 224.863281 286.816406 224.996094 286.003906 224.996094L286.003906 225.320313 288.890625 225.320313 288.890625 224.996094C288.078125 224.996094 287.863281 224.863281 287.863281 223.992188L287.863281 220.511719 289.191406 220.511719 289.191406 220.042969 287.863281 220.042969 287.863281 219.40625C287.863281 218.15625 288.488281 217.777344 289.226563 217.777344 290.015625 217.777344 290.328125 218.148438 290.484375 218.648438L290.484375 224.195313C290.484375 224.820313 290.441406 224.996094 289.703125 224.996094L289.703125 225.320313 292.269531 225.320313 292.269531 224.996094M297.128906 223.726563C296.773438 224.195313 296.425781 224.59375 295.523438 224.59375 294.632813 224.59375 293.78125 223.890625 293.78125 222.351563L297.308594 222.351563C297.253906 220.789063 296.449219 219.910156 295.234375 219.910156 293.929688 219.910156 292.878906 220.800781 292.878906 222.664063 292.878906 224.460938 293.917969 225.429688 295.257813 225.429688 296.40625 225.429688 296.941406 224.730469 297.34375 223.882813zM293.773438 221.941406C293.859375 220.902344 294.308594 220.355469 295.066406 220.355469 295.859375 220.355469 296.226563 221.113281 296.257813 221.941406L293.773438 221.941406M302.976563 225.320313L302.976563 224.996094C302.5625 224.996094 302.398438 224.796875 302.085938 224.351563L300.714844 222.40625 301.894531 220.890625C302.152344 220.566406 302.40625 220.367188 302.789063 220.367188L302.789063 220.042969 300.945313 220.042969 300.945313 220.355469C301.304688 220.355469 301.40625 220.457031 301.40625 220.625 301.40625 220.800781 301.304688 220.96875 301.003906 221.382813L300.476563 222.140625 300.433594 222.140625 300.164063 221.648438C299.785156 221.023438 299.585938 220.789063 299.585938 220.613281 299.585938 220.445313 299.765625 220.355469 300.121094 220.355469L300.121094 220.042969 297.722656 220.042969 297.722656 220.367188C298.179688 220.367188 298.3125 220.476563 298.703125 221.035156L299.863281 222.699219 298.527344 224.4375C298.15625 224.875 297.957031 224.996094 297.578125 224.996094L297.578125 225.320313 299.441406 225.320313 299.441406 224.996094C299.070313 224.996094 298.9375 224.953125 298.9375 224.828125 298.9375 224.742188 299.09375 224.539063 299.207031 224.359375L300.121094 223.042969 300.164063 223.042969 300.390625 223.433594 301.09375 224.515625C301.148438 224.605469 301.171875 224.671875 301.171875 224.75 301.171875 224.941406 301.035156 224.996094 300.644531 224.996094L300.644531 225.320313 302.976563 225.320313M304.617188 217.589844C304.226563 217.589844 303.980469 217.878906 303.980469 218.214844 303.980469 218.558594 304.238281 218.851563 304.617188 218.851563 305.007813 218.851563 305.253906 218.558594 305.253906 218.214844 305.253906 217.878906 305.007813 217.589844 304.617188 217.589844zM305.867188 225.007813C305.121094 225.007813 305.0625 224.839844 305.0625 224.195313L305.0625 219.941406 304.773438 219.941406 303.367188 220.253906 303.367188 220.578125C303.367188 220.578125 303.492188 220.554688 303.648438 220.554688 303.96875 220.554688 304.136719 220.601563 304.136719 221.082031L304.136719 224.195313C304.136719 224.828125 304.105469 225.007813 303.355469 225.007813L303.355469 225.320313 305.867188 225.320313 305.867188 225.007813M309.078125 219.910156C307.570313 219.910156 306.578125 221.003906 306.578125 222.621094 306.578125 224.429688 307.515625 225.429688 309.078125 225.429688 310.527344 225.429688 311.554688 224.449219 311.554688 222.578125 311.554688 220.925781 310.605469 219.910156 309.078125 219.910156zM309.035156 220.332031C310.027344 220.332031 310.527344 221.257813 310.527344 222.632813 310.527344 224.449219 310.039063 224.984375 309.121094 224.984375 308.164063 224.996094 307.617188 224.25 307.617188 222.476563 307.617188 221.046875 308.1875 220.332031 309.035156 220.332031M317.367188 221.894531C317.367188 220.613281 316.886719 219.910156 315.871094 219.910156 315.167969 219.910156 314.679688 220.3125 314.074219 220.847656L314.03125 220.847656 314.042969 219.941406 313.785156 219.941406 312.367188 220.265625 312.367188 220.589844C312.367188 220.589844 312.480469 220.566406 312.667969 220.566406 312.96875 220.566406 313.136719 220.65625 313.136719 221.058594L313.136719 224.195313C313.136719 224.820313 313.105469 225.007813 312.355469 225.007813L312.355469 225.320313 314.914063 225.320313 314.914063 225.007813C314.109375 225.007813 314.0625 224.820313 314.0625 224.195313L314.0625 221.328125C314.398438 221.023438 314.8125 220.625 315.414063 220.625 315.914063 220.625 316.441406 220.835938 316.441406 222.175781L316.441406 224.195313C316.441406 224.820313 316.40625 225.007813 315.613281 225.007813L315.613281 225.320313 318.191406 225.320313 318.191406 225.007813C317.445313 225.007813 317.367188 224.820313 317.367188 224.195313L317.367188 221.894531" />
  <path d="M 1940.117188 560.48125 C 1914.257813 575.403125 1884.921875 583.254687 1855.078125 583.254687" transform="matrix(.1 0 0 -.1 0 241.22)" fill="none" stroke-width="7.97" stroke="#e14b3b" stroke-miterlimit="10" />
  <path d="M193.722656 167.933594C193.722656 166.3125 193.230469 165.222656 192.171875 165.222656 190.351563 165.222656 188.789063 167.84375 188.789063 170.898438 188.789063 172.628906 189.527344 173.375 190.519531 173.375 192.257813 173.375 193.722656 171.324219 193.722656 167.933594zM190.742188 172.40625C190.152344 172.40625 189.390625 172.003906 189.390625 170.429688 189.390625 170.140625 189.414063 169.726563 189.449219 169.449219L193.074219 169.449219C192.773438 171.558594 191.8125 172.40625 190.742188 172.40625zM191.949219 166.191406C192.816406 166.191406 193.175781 167.152344 193.175781 168.199219 193.175781 168.402344 193.164063 168.648438 193.152344 168.859375L189.5625 168.859375C189.949219 167.183594 191 166.191406 191.949219 166.191406M195.671875 173.257813L196.085938 171.507813 195.8125 171.507813 194.675781 171.59375 194.675781 171.851563C194.675781 171.851563 194.832031 171.835938 194.925781 171.835938 195.175781 171.835938 195.214844 171.957031 195.214844 172.113281 195.214844 172.246094 195.175781 172.441406 195.144531 172.605469L194.527344 175.519531 195.28125 175.519531 195.515625 174.351563C195.671875 174.015625 196.445313 172.238281 196.859375 172.238281 196.882813 172.238281 196.996094 172.574219 197.285156 172.574219 197.503906 172.574219 197.722656 172.371094 197.722656 172.003906 197.722656 171.679688 197.503906 171.492188 197.207031 171.492188 196.523438 171.492188 196.054688 172.699219 195.765625 173.257813L195.671875 173.257813" />
  <path d="M 1855.078125 583.254687 C 1825.234375 583.254687 1795.898438 575.403125 1770.039063 560.48125" transform="matrix(.1 0 0 -.1 0 241.22)" fill="none" stroke-width="7.97" stroke="#e14b3b" stroke-miterlimit="10" />
  <path d="M178.523438 167.832031C178.523438 166.214844 178.03125 165.121094 176.96875 165.121094 175.152344 165.121094 173.589844 167.742188 173.589844 170.800781 173.589844 172.53125 174.328125 173.277344 175.320313 173.277344 177.058594 173.277344 178.523438 171.222656 178.523438 167.832031zM175.542969 172.304688C174.953125 172.304688 174.191406 171.90625 174.191406 170.332031 174.191406 170.039063 174.214844 169.628906 174.246094 169.351563L177.875 169.351563C177.574219 171.457031 176.613281 172.304688 175.542969 172.304688zM176.746094 166.09375C177.617188 166.09375 177.976563 167.050781 177.976563 168.101563 177.976563 168.300781 177.964844 168.546875 177.953125 168.757813L174.359375 168.757813C174.75 167.085938 175.800781 166.09375 176.746094 166.09375M181.128906 170.40625C181.128906 170.101563 180.925781 169.914063 180.636719 169.914063 180.371094 169.914063 180.167969 170.09375 180.167969 170.40625 180.167969 170.71875 180.371094 170.890625 180.636719 170.890625 180.925781 170.890625 181.128906 170.710938 181.128906 170.40625zM180.949219 171.507813L180.667969 171.507813 179.539063 171.59375 179.539063 171.851563C179.539063 171.851563 179.6875 171.835938 179.8125 171.835938 180.042969 171.835938 180.105469 171.980469 180.105469 172.105469 180.105469 172.261719 180.074219 172.371094 180.074219 172.371094L179.65625 174.375C179.546875 174.859375 179.523438 175.03125 179.523438 175.164063 179.523438 175.457031 179.734375 175.589844 180.089844 175.589844 180.699219 175.589844 180.996094 175.148438 181.292969 174.742188L181.097656 174.585938C180.988281 174.71875 180.761719 175.023438 180.472656 175.023438 180.371094 175.023438 180.300781 174.976563 180.300781 174.84375 180.300781 174.71875 180.363281 174.421875 180.363281 174.421875L180.949219 171.507813" />
</svg>